<svg xmlns="http://www.w3.org/2000/svg" width="20.585" height="30.494" viewBox="0 0 20.585 30.494">
  <g id="Group_106" data-name="Group 106" transform="translate(-89.211 -406.003)">
    <g id="Group_101" data-name="Group 101" transform="translate(89.211 406.003)">
      <rect id="Rectangle_140" data-name="Rectangle 140" width="16.484" height="13.187" rx="6.594" transform="translate(2.299 4.118)" fill="#ededed"/>
      <g id="Screenshot_2022-01-10_at_4.13.26_PM" data-name="Screenshot 2022-01-10 at 4.13.26 PM" transform="translate(0 0)">
        <path id="Path_158" data-name="Path 158" d="M166.715-513.777a2.993,2.993,0,0,0-1.529.892,1.346,1.346,0,0,0-.186.295c0,.031.132.054.295.054a.577.577,0,0,0,.442-.155,2.247,2.247,0,0,1,1.389-.388l.473.008.807,1.079c.8,1.079.854,1.133,1.226,1.024.163-.054.147-.085-.295-.667-.427-.574-.458-.644-.458-1.032v-.411h6.053v.411c0,.388-.031.458-.458,1.032-.442.582-.458.613-.295.667.372.109.427.054,1.226-1.024l.807-1.079.466-.008a2.148,2.148,0,0,1,1.312.349c.264.178.823.272.823.14a1.345,1.345,0,0,0-.186-.295,2.948,2.948,0,0,0-1.56-.892c-.574-.148-.854-.155-5.192-.148C167.592-513.924,167.251-513.916,166.715-513.777Z" transform="translate(-161.632 513.926)" fill="#222221"/>
        <path id="Path_159" data-name="Path 159" d="M130.168-447.523c-4.361.419-6.915,2-7.993,4.951a9.579,9.579,0,0,0-.574,3.935c0,4.237,1.055,8.808,2.476,10.717a8.334,8.334,0,0,0,3.973,2.546,10.428,10.428,0,0,0,3.826.543,10.354,10.354,0,0,0,4.036-.621,8.183,8.183,0,0,0,3.585-2.258c1.459-1.917,2.514-5.991,2.677-10.345.147-4.059-1.094-6.752-3.787-8.18a10.723,10.723,0,0,0-3.834-1.172A26.732,26.732,0,0,0,130.168-447.523Zm5.3,2.359c2.1.4,3.306,1.118,3.9,2.328a5.126,5.126,0,0,1,.4,2.677c-.147,2.708-1.2,5.138-2.577,5.945a11.291,11.291,0,0,1-5.355,1.048c-2.716,0-4.959-.59-5.937-1.568a8.6,8.6,0,0,1-1.87-5.044c-.186-1.956.14-3.159,1.086-4.028a6.372,6.372,0,0,1,3.43-1.381c.365-.047.745-.1.854-.116s1.366-.023,2.794-.016A21.417,21.417,0,0,1,135.468-445.164Zm-8.622,12.774c.737.21,1.063.776,1.071,1.847,0,.815-.124,1.164-.543,1.513a1.991,1.991,0,0,1-1.529.357c-.636-.031-.745-.054-1.04-.264a1.64,1.64,0,0,1-.675-1.529,1.768,1.768,0,0,1,.163-1.094,1.39,1.39,0,0,1,.869-.815A4.536,4.536,0,0,1,126.846-432.39Zm11.711.016a1.35,1.35,0,0,1,.9.815,1.768,1.768,0,0,1,.163,1.094,1.64,1.64,0,0,1-.675,1.529c-.295.21-.4.233-1.04.264a1.991,1.991,0,0,1-1.529-.357c-.419-.349-.543-.7-.543-1.513.008-1.048.279-1.56.986-1.808A3.984,3.984,0,0,1,138.557-432.374Z" transform="translate(-121.6 450.855)" fill="#397ff4"/>
        <path id="Path_160" data-name="Path 160" d="M133.6-133.656c-.83,1.281-1.575,2.437-1.653,2.553l-.147.225h3.019l.38-.815.372-.815H147l.373.815.38.815h3.019l-.147-.225c-2.289-3.578-3.182-4.9-3.283-4.866-.062.023-.427.147-.815.279s-.737.256-.792.272-.023.186.132.535a2.118,2.118,0,0,1,.233.9v.388h-9.623v-.388a2.149,2.149,0,0,1,.233-.908,3.549,3.549,0,0,0,.217-.528c-.016-.008-.248-.078-.52-.147a8.026,8.026,0,0,1-.838-.287,4.044,4.044,0,0,0-.4-.147C135.137-136,134.431-134.945,133.6-133.656Z" transform="translate(-131.008 161.372)" fill="#3d2c00"/>
      </g>
    </g>
  </g>
</svg>
